<svg width="1440" height="749" viewBox="0 0 1440 749" fill="none" xmlns="http://www.w3.org/2000/svg">
<g opacity="0.3">
<path d="M4536 814.934L2690.44 341.451L1346.95 322.737L938.363 -8.51411H180.055M2011.77 1178L647.505 616.558L612.879 231.034L-0.000220299 193.605V-16M171.48 -8.87049L893.679 1.1107L1311.99 318.37L2593.15 354.552L4415.8 832.223M162.907 -9.2271L848.995 10.7353L1277.04 314.003L2495.87 367.652L4295.6 849.512M154.333 -9.58349L804.312 20.3601L1242.08 309.636L2398.59 380.752L4175.4 866.801M145.758 -9.9401L759.627 29.9847L1207.13 305.269L2301.31 393.853L4055.19 884.089M137.184 -10.2965L714.943 39.6095L1172.17 300.903L2204.02 406.953L3934.99 901.378M128.61 -10.6529L670.259 49.2343L1137.22 296.536L2106.74 420.053L3814.79 918.667M120.036 -11.0095L625.576 58.8589L1102.26 292.169L2009.46 433.154L3694.59 935.956M111.463 -11.3659L580.891 68.4837L1067.3 287.803L1912.18 446.254L3574.39 953.245M102.889 -11.7222L536.208 78.1085L1032.35 283.436L1814.89 459.354L3454.19 970.534M94.3143 -12.0789L491.524 87.7331L997.392 279.069L1717.61 472.454L3333.98 987.823M85.74 -12.4352L446.839 97.3579L962.436 274.702L1620.33 485.555L3213.78 1005.11M77.1658 -12.7919L402.155 106.982L927.481 270.335L1523.05 498.655L3093.58 1022.4M68.5918 -13.1482L357.471 116.607L892.525 265.969L1425.76 511.756L2973.38 1039.69M60.0178 -13.5046L312.787 126.232L857.569 261.602L1328.48 524.856L2853.18 1056.98M51.444 -13.8612L268.104 135.857L822.613 257.235L1231.2 537.956L2732.98 1074.27M42.8701 -14.2176L223.42 145.481L787.658 252.868L1133.92 551.056L2612.78 1091.56M34.2961 -14.574L178.736 155.106L752.702 248.502L1036.63 564.157L2492.57 1108.84M25.7218 -14.9306L134.051 164.731L717.746 244.135L939.352 577.257L2372.37 1126.13M17.1478 -15.287L89.3677 174.356L682.79 239.768L842.07 590.357L2252.17 1143.42M8.57378 -15.6436L44.6837 183.98L647.835 235.401L744.787 603.458L2131.97 1160.71" stroke="#46595B" stroke-opacity="0.4"/>
<path d="M4536 814.934L2690.44 341.451L1346.95 322.737L938.363 -8.51411H180.055M2011.77 1178L647.505 616.558L612.879 231.034L-0.000220299 193.605V-16M171.48 -8.87049L893.679 1.1107L1311.99 318.37L2593.15 354.552L4415.8 832.223M162.907 -9.2271L848.995 10.7353L1277.04 314.003L2495.87 367.652L4295.6 849.512M154.333 -9.58349L804.312 20.3601L1242.08 309.636L2398.59 380.752L4175.4 866.801M145.758 -9.9401L759.627 29.9847L1207.13 305.269L2301.31 393.853L4055.19 884.089M137.184 -10.2965L714.943 39.6095L1172.17 300.903L2204.02 406.953L3934.99 901.378M128.61 -10.6529L670.259 49.2343L1137.22 296.536L2106.74 420.053L3814.79 918.667M120.036 -11.0095L625.576 58.8589L1102.26 292.169L2009.46 433.154L3694.59 935.956M111.463 -11.3659L580.891 68.4837L1067.3 287.803L1912.18 446.254L3574.39 953.245M102.889 -11.7222L536.208 78.1085L1032.35 283.436L1814.89 459.354L3454.19 970.534M94.3143 -12.0789L491.524 87.7331L997.392 279.069L1717.61 472.454L3333.98 987.823M85.74 -12.4352L446.839 97.3579L962.436 274.702L1620.33 485.555L3213.78 1005.11M77.1658 -12.7919L402.155 106.982L927.481 270.335L1523.05 498.655L3093.58 1022.4M68.5918 -13.1482L357.471 116.607L892.525 265.969L1425.76 511.756L2973.38 1039.69M60.0178 -13.5046L312.787 126.232L857.569 261.602L1328.48 524.856L2853.18 1056.98M51.444 -13.8612L268.104 135.857L822.613 257.235L1231.2 537.956L2732.98 1074.27M42.8701 -14.2176L223.42 145.481L787.658 252.868L1133.92 551.056L2612.78 1091.56M34.2961 -14.574L178.736 155.106L752.702 248.502L1036.63 564.157L2492.57 1108.84M25.7218 -14.9306L134.051 164.731L717.746 244.135L939.352 577.257L2372.37 1126.13M17.1478 -15.287L89.3677 174.356L682.79 239.768L842.07 590.357L2252.17 1143.42M8.57378 -15.6436L44.6837 183.98L647.835 235.401L744.787 603.458L2131.97 1160.71" stroke="url(#paint0_linear_1_856)" stroke-opacity="0.4"/>
</g>
<defs>
<linearGradient id="paint0_linear_1_856" x1="3730" y1="1178" x2="1403.95" y2="-1368.2" gradientUnits="userSpaceOnUse">
<stop stop-color="#C0C3C9"/>
<stop offset="1" stop-color="white"/>
</linearGradient>
</defs>
</svg>
