<svg width="1440" height="704" viewBox="0 0 1440 704" fill="none" xmlns="http://www.w3.org/2000/svg">
<path d="M0.00012207 407.62V402.876C45.9216 451.459 92.0333 489.835 139.291 516.186C348.702 632.909 581.325 513.153 921.41 0.0490723H925.393C583.393 516.503 349.042 636.791 137.552 518.897C90.8611 492.874 45.3197 455.199 0.00012207 407.62ZM0.00012207 417.126V412.397C43.8539 457.95 87.8977 494.405 132.975 520.16C346.617 642.218 584.13 524.02 935.712 0.0490723H939.707C586.178 527.403 346.931 646.114 131.207 522.868C86.7112 497.446 43.2433 461.7 0.00012207 417.126ZM0.00012207 426.564V421.913C41.6477 464.384 83.4884 498.817 126.245 523.865C344.284 651.594 586.82 535.286 950.558 0.0490723H954.564C588.839 538.706 344.569 655.503 124.451 526.549C82.2845 501.847 41.0314 468.095 0.00012207 426.564ZM0.00012207 436.016V431.37C39.2948 470.698 78.7797 503.021 119.062 527.247C341.66 661.043 589.366 546.938 965.961 0.0490723H969.993C591.359 550.422 341.917 664.971 117.216 529.918C77.5527 506.071 38.6698 474.424 0.00012207 436.016ZM0.00012207 445.384V440.803C36.7748 476.918 73.728 507.051 111.367 530.27C336.096 668.937 585.85 561.696 968.481 19.342C973.175 12.6899 977.789 6.51318 982.452 0.0490723H986.538C981.461 7.07739 976.427 13.8317 971.312 21.083C587.281 565.417 336.067 672.714 109.506 532.921C72.4868 510.079 36.144 480.609 0.00012207 445.384ZM0.00012207 454.742V450.217C34.0676 483.035 68.3051 510.831 103.104 532.892C329.613 676.443 580.896 577.12 968.495 42.2567C979.039 27.703 989.493 13.6839 999.887 0.0517578H1004.01C993.194 14.2015 982.291 28.8619 971.303 44.0327C582.276 580.865 329.532 680.218 101.209 535.511C67.0349 513.854 33.4282 486.7 0.00012207 454.742ZM0.00012207 464.081V459.594C31.1531 489.016 62.4557 514.34 94.2192 535.028C322.664 683.834 575.551 592.756 968.501 65.1633C985.634 42.1573 1002.48 20.7069 1019.21 0.0490723H1023.47C1006.28 21.2308 988.929 43.3045 971.292 66.9768C576.864 596.544 322.528 687.617 92.2782 537.639C61.1627 517.371 30.5022 492.675 0.00012207 464.081ZM0.00012207 473.377V468.925C27.9966 494.848 56.1255 517.554 84.6116 536.629C315.193 691.088 569.759 608.661 968.515 88.0726C992.799 56.3698 1016.61 27.2059 1040.06 0.0490723H1044.48C1020.51 27.7218 996.143 57.4606 971.277 89.9236C571.023 612.471 314.997 694.877 82.6301 539.214C54.8093 520.576 27.3341 498.502 0.00012207 473.377ZM0.00012207 482.632V478.237C24.5693 500.536 49.248 520.418 74.1831 537.596C307.132 698.197 563.458 624.849 968.527 110.987C1000.78 70.0557 1032.28 33.2483 1063.05 0.0490723H1067.52C1036.21 33.6835 1004.14 71.1653 971.266 112.865C564.659 628.672 306.881 701.967 72.1757 540.157C47.9117 523.427 23.9041 504.166 0.00012207 482.632ZM0.00012207 491.858V487.5C20.8311 506.02 41.7428 522.857 62.833 537.83C298.406 705.094 556.569 641.361 968.544 133.896C1009.86 83.0056 1049.88 38.7533 1088.73 0.0490723H1093.39C1053.93 39.1455 1013.26 84.056 971.24 135.812C557.701 645.2 298.08 708.845 60.7854 540.353C40.3834 525.866 20.1217 509.701 0.00012207 491.858ZM0.00012207 501.071V496.74C16.731 511.307 33.5309 524.788 50.4 537.182C288.91 711.722 548.994 658.239 968.544 156.808C1020.11 95.1761 1069.68 43.4711 1117.38 0.0490723H1122.3C1073.91 43.7854 1023.6 96.1487 971.214 158.759C550.066 662.107 288.539 715.47 48.3207 539.681C32.1293 527.831 16.0225 514.961 0.00012207 501.071ZM0.00012207 510.232V505.934C12.2054 516.34 24.4474 526.191 36.7258 535.487C278.548 718.025 540.634 675.551 968.573 179.718C1031.98 106.253 1092.38 47.176 1149.92 0.0490723H1155.15C1096.86 47.3802 1035.59 107.124 971.217 181.706C541.627 679.453 278.107 721.768 34.6005 537.948C23.0248 529.22 11.4912 519.981 0.00012207 510.232ZM0.00012207 519.367V515.111C7.17322 521.097 14.3597 526.9 21.5597 532.521C267.157 723.906 531.32 693.383 968.593 202.616C1045.94 115.807 1118.87 49.4758 1187.47 0.0410156H1193.15C1123.69 49.5215 1049.73 116.508 971.197 204.642C532.224 697.316 266.648 727.627 19.3939 534.966C12.9177 529.92 6.45312 524.722 0.00012207 519.37V519.367ZM0.00012207 528.469V524.246C1.53516 525.498 3.07019 526.753 4.60803 527.989C254.555 729.261 520.865 711.862 968.607 225.528C1063.22 122.768 1151.15 49.7606 1232.66 0.0490723H1239.23C1156.65 49.5376 1067.38 123.115 971.185 227.61C521.701 715.827 253.973 732.987 2.38757 530.412C1.59277 529.77 0.794922 529.117 0.00012207 528.472V528.469ZM0.00012207 537.507V533.348C250.773 733.597 517.735 721.953 968.628 248.437C1085.69 125.501 1192.54 46.4909 1289.51 0.0463257H1297.58C1199.21 45.7467 1090.53 125.205 971.176 250.549C519.811 724.559 251.712 737.237 0.00012207 537.51V537.507ZM0.00012207 546.57V542.451C250.258 737.81 517.366 729.108 968.648 271.349C1120.01 117.817 1254.27 35.1182 1372.08 0.0490723H1384.58C1264.52 32.7808 1126.92 115.487 971.136 273.499C519.348 731.778 251.136 741.458 0.00012207 546.572V546.57ZM0.00012207 555.589V551.484C249.745 742.006 516.997 736.294 968.668 294.267C1150 116.79 1306.8 37.2541 1440 17.7784V21.3571C1307.5 40.7549 1151.52 119.896 971.136 296.446C518.887 739.035 250.56 745.684 0.00012207 555.591V555.589ZM0.00012207 564.552V560.481C249.235 746.214 516.635 743.516 968.694 317.16C1150.11 146.062 1306.87 69.5345 1440 51.0367V54.5778C1307.56 73.0057 1151.6 149.149 971.099 319.398C518.429 746.332 250.004 749.9 0.00012207 564.546V564.552ZM0.00012207 573.522V569.436C248.734 750.432 516.28 750.786 968.714 340.072C1150.22 175.309 1306.94 101.81 1440 84.2978V87.8039C1307.62 105.248 1151.68 178.399 971.078 342.345C517.971 753.664 249.44 754.166 0.00012207 573.525V573.522ZM0.00012207 582.466V578.396C248.236 754.709 515.938 758.07 968.74 362.976C1150.33 204.532 1307.02 134.055 1440 117.543V121.035C1307.68 137.489 1151.76 207.632 971.052 365.313C517.507 761.039 248.875 758.454 0.00012207 582.469V582.466ZM0.00012207 591.354V587.2C247.778 758.879 515.653 765.359 968.766 385.882C1150.43 233.741 1307.09 166.287 1440 150.78V154.221C1307.74 169.672 1151.84 236.818 971.024 388.247C516.986 768.497 248.282 762.731 0.00012207 591.356V591.354ZM911.604 0.0490723C580.513 505.977 350.928 627.541 143.528 514.687C94.7722 488.156 47.2753 448.643 0.00012207 398.12V393.284C47.8685 444.858 95.9041 485.109 145.23 511.941C350.574 623.669 578.425 502.656 907.629 0.0490723H911.604Z" 

fill="#01292c" fill-opacity="0.1"/>
</svg>
